<svg width="20" height="27" viewBox="0 0 20 27" fill="none" xmlns="http://www.w3.org/2000/svg">
<path fill-rule="evenodd" clip-rule="evenodd" d="M4.49827 6.8748V6.7112C4.49827 3.75271 6.25608 1.16955 8.77065 0.432766C9.7001 0.160432 10.6749 0.160432 11.6044 0.432766C14.1189 1.16955 15.8767 3.75272 15.8767 6.7112V6.8748H17.6747C18.3589 6.8748 18.9396 7.44662 19.0388 8.21805L19.3007 10.2549C19.8164 14.2653 19.8164 18.3398 19.3007 22.3501C19.0517 24.2868 17.6812 25.784 15.9725 25.9859L15.2193 26.075C11.8737 26.4703 8.50125 26.4703 5.15567 26.0749L4.40245 25.9859C2.69384 25.784 1.32329 24.2868 1.07426 22.3502C0.558581 18.3398 0.558581 14.2653 1.07426 10.2549L1.33617 8.21805C1.43537 7.44662 2.01608 6.8748 2.70032 6.8748H4.49827ZM9.21808 2.41543C9.85402 2.2291 10.521 2.2291 11.1569 2.41543C12.8774 2.91955 14.0801 4.68698 14.0801 6.7112V6.8748H6.29487V6.7112C6.29487 4.68697 7.49758 2.91955 9.21808 2.41543ZM4.49827 8.92197V11.9927C4.49827 12.558 4.90046 13.0163 5.39657 13.0163C5.89269 13.0163 6.29487 12.558 6.29487 11.9927V8.92197H14.0801V11.9927C14.0801 12.558 14.4823 13.0163 14.9784 13.0163C15.4746 13.0163 15.8767 12.558 15.8767 11.9927V8.92197H17.3136L17.5231 10.5517C18.0135 14.3652 18.0135 18.2398 17.5231 22.0534C17.3932 23.0635 16.6784 23.8444 15.7872 23.9497L15.034 24.0387C11.8116 24.4195 8.56336 24.4195 5.34099 24.0387L4.58777 23.9497C3.69661 23.8444 2.98176 23.0635 2.85188 22.0534C2.36151 18.2398 2.36151 14.3652 2.85188 10.5517L3.06144 8.92197H4.49827Z" fill="#4F5665"/>
</svg>
